# xmcd
#
# Track frame offsets:
#	150
#	12261
#	26537
#	50421
#	69558
#	88419
#	102229
#	119781
#	133185
#	148053
#	159242
#	180906
#	203282
#	218526
#
# Disc length: 3079 seconds
#
# Revision: 0
# Processed by: cddbd v1.4PL0 Copyright (c) Steve Scherf et al.
# Submitted via: MusicWizard 6.0.1
#
DISCID=bf0c050e
DTITLE=Various Artist - Keb Mo What A Wonderful World
DYEAR=1900
DGENRE=Blues
TTITLE0=Keb Mo - What A Wonderful World
TTITLE1=Keb Mo - Dirty Low Down And
TTITLE2=Keb Mo - Follow Me Up
TTITLE3=Keb Mo - Gimme What You
TTITLE4=Keb Mo - Come On In My Kitchen
TTITLE5=Keb Mo - Love Blues
TTITLE6=Keb Mo - Till It Shines
TTITLE7=Keb Mo - Outskirts Of Town
TTITLE8=Keb Mo - Perpetual Blues
TTITLE9=Keb Mo - Stand Up
TTITLE10=Keb Mo - The Door
TTITLE11=Lee Ann Womack - I Hope You Dance
TTITLE12=Rolf Harris - 6 White Boomers
TTITLE13=Andy Williams - Moon River
EXTD=
EXTT0=
EXTT1=
EXTT2=
EXTT3=
EXTT4=
EXTT5=
EXTT6=
EXTT7=
EXTT8=
EXTT9=
EXTT10=
EXTT11=
EXTT12=
EXTT13=
PLAYORDER=
